<?xml version="1.0" encoding="UTF-8"?><!DOCTYPE svg PUBLIC "-//W3C//DTD SVG 1.1//EN" "http://www.w3.org/Graphics/SVG/1.1/DTD/svg11.dtd"><svg xmlns="http://www.w3.org/2000/svg" xmlns:xlink="http://www.w3.org/1999/xlink"><defs>
		<clipPath id="clip0_30_490">
			<rect width="24" height="24" fill="white"/>
		</clipPath>
	</defs><symbol id="back" viewBox="0 0 40 40">
<path d="M22 25L17 19.5L22 14" stroke="#3E72FF" stroke-width="2" stroke-linecap="round" fill="none"/>
<circle cx="20" cy="20" r="19.5" stroke="#2684FF" fill="none"/>
</symbol><symbol id="bg_markdownviewer" viewBox="0 0 777 877">
<path d="M0 23.0397C0 9.99473 10.9762 -0.362177 23.9992 0.394584L755.633 42.9095C767.629 43.6066 777 53.5381 777 65.5546V854.317C777 866.844 766.844 877 754.317 877H22.6833C10.1556 877 0 866.844 0 854.317V23.0397Z" fill="white"/>
</symbol><symbol id="database" viewBox="0 0 24 24">
	<path d="M12 8C16.9706 8 21 6.65685 21 5C21 3.34315 16.9706 2 12 2C7.02944 2 3 3.34315 3 5C3 6.65685 7.02944 8 12 8Z" stroke="inherit" fill="none" stroke-width="1.5" stroke-linecap="round" stroke-linejoin="round"/>
	<path d="M21 12C21 13.66 17 15 12 15C7 15 3 13.66 3 12" stroke="inherit" fill="none" stroke-width="1.5" stroke-linecap="round" stroke-linejoin="round"/>
	<path d="M3 5V19C3 20.66 7 22 12 22C17 22 21 20.66 21 19V5" stroke="inherit" fill="none" stroke-width="1.5" stroke-linecap="round" stroke-linejoin="round"/>
</symbol><symbol id="onboarding" viewBox="0 0 24 24">
	<g clip-path="url(#clip0_30_490)">
		<path d="M18.6796 15.5246C18.7039 15.5473 18.7303 15.5682 18.7587 15.587C18.6053 15.7346 18.558 15.9702 18.6582 16.1709C18.7461 16.3462 18.9223 16.4473 19.1059 16.4473C19.1811 16.4473 19.2573 16.4302 19.3291 16.3946L20.397 15.8043C20.7656 15.3227 24 11.0435 24 8.99998C24 6.79442 22.2055 5 20 5C17.7944 5 16 6.79442 16 8.99998C16 10.4904 17.7176 13.1648 18.7919 14.693C18.7275 14.7418 18.6705 14.8009 18.6347 14.8794M18.6796 15.5246C18.703 15.5009 18.7286 15.4791 18.7563 15.4593C18.5976 15.3174 18.5417 15.0835 18.6347 14.8794M18.6796 15.5246C18.5033 15.7023 18.4507 15.9791 18.5687 16.2156L18.5688 16.2157C18.6743 16.4261 18.8859 16.5473 19.1059 16.5473C19.1964 16.5473 19.2878 16.5267 19.3735 16.4841L19.3738 16.484L20.2541 16.0438L20.2544 16.0438L20.2662 16.0378L20.2684 16.0368L20.2689 16.0365C20.2775 16.0321 20.2843 16.0272 20.2895 16.0228C20.3589 15.9846 20.4242 15.9331 20.4763 15.8651L20.4764 15.8651C20.6615 15.6233 21.5645 14.43 22.4218 13.0403C22.8504 12.3456 23.2687 11.5999 23.5802 10.8981C23.8905 10.1991 24.1 9.53262 24.1 8.99998C24.1 6.73919 22.2608 4.9 20 4.9C17.7392 4.9 15.9 6.73919 15.9 8.99998C15.9 9.38964 16.0118 9.84902 16.1913 10.3379C16.3713 10.828 16.6219 11.3543 16.9051 11.8798C17.4534 12.8972 18.1274 13.9178 18.6582 14.6764C18.6135 14.7206 18.5731 14.7734 18.5438 14.8379M18.6796 15.5246C18.4968 15.3535 18.4341 15.0785 18.5438 14.8379M18.6347 14.8794L18.5437 14.838C18.5437 14.838 18.5437 14.838 18.5438 14.8379M18.6347 14.8794L18.5438 14.8379M21.8254 11.692C21.2447 12.7041 20.5394 13.7441 20 14.4925C19.4605 13.7441 18.7552 12.7041 18.1745 11.6921C17.8694 11.1603 17.5997 10.638 17.4066 10.171C17.2124 9.70137 17.1 9.29783 17.1 8.99998C17.1 7.4009 18.4009 6.09998 20 6.09998C21.5991 6.09998 22.9 7.4009 22.9 8.99998C22.9 9.29782 22.7876 9.70135 22.5934 10.171C22.4003 10.638 22.1306 11.1602 21.8254 11.692Z" fill="inherit" stroke="inherit" stroke-width="0.2"/>
		<path d="M3.52368 23.865L3.52365 23.865C3.33853 23.6232 2.43543 22.43 1.57816 21.0403C1.14959 20.3456 0.731243 19.5999 0.419732 18.8981C0.109452 18.1991 -0.1 17.5326 -0.1 17C-0.1 14.7392 1.73919 12.9 4.00003 12.9C6.26082 12.9 8.10002 14.7392 8.10002 17C8.10002 17.3881 7.98914 17.8453 7.8109 18.3319C7.63218 18.8198 7.3833 19.3437 7.10179 19.867C6.55534 20.8828 5.88244 21.9029 5.3509 22.6633C5.38177 22.6993 5.40895 22.7397 5.43123 22.7843L3.52368 23.865ZM3.52368 23.865C3.54525 23.8932 3.57 23.9134 3.59026 23.9283C3.59889 23.9347 3.60775 23.9409 3.61524 23.9461L3.61862 23.9485C3.62731 23.9545 3.63432 23.9595 3.64071 23.9644L3.6408 23.9645M3.52368 23.865L3.6408 23.9645M3.6408 23.9645C3.64467 23.9675 3.64739 23.97 3.65279 23.975C3.6553 23.9774 3.65838 23.9803 3.66242 23.984C3.67287 23.9936 3.68924 24.008 3.71103 24.0201M3.6408 23.9645L4.01011 24.1M4.01011 24.1H4.0005H4.00003H3.99044L3.98997 24.0999C3.8867 24.0979 3.79282 24.0656 3.71103 24.0201M4.01011 24.1L4.0132 24.0993M4.01011 24.1L4.0132 24.0993M3.71103 24.0201L3.75966 23.9327L3.7113 24.0203C3.71121 24.0202 3.71112 24.0202 3.71103 24.0201ZM4.0132 24.0993C4.02098 24.0986 4.02765 24.0972 4.03287 24.0959C4.03997 24.0942 4.04618 24.0921 4.04921 24.0911C4.11619 24.0857 4.19088 24.0735 4.26135 24.0398C4.26357 24.0389 4.26592 24.0378 4.26835 24.0366C4.26838 24.0366 4.26841 24.0366 4.26844 24.0366L5.16285 23.5894C5.16286 23.5894 5.16286 23.5893 5.16286 23.5893L4.0132 24.0993ZM4.26694 24.0371C4.26671 24.0372 4.26648 24.0373 4.26626 24.0374L4.26694 24.0371ZM5.82542 19.692C5.24472 20.704 4.53942 21.7441 3.99998 22.4925C3.46055 21.7441 2.75525 20.704 2.17455 19.692C1.8694 19.1602 1.59971 18.638 1.40658 18.171C1.21236 17.7013 1.09998 17.2978 1.09998 16.9999C1.09998 15.4009 2.4009 14.0999 3.99998 14.0999C5.59907 14.0999 6.89998 15.4009 6.89998 16.9999C6.89998 17.2978 6.78761 17.7013 6.59339 18.171C6.40026 18.638 6.13057 19.1602 5.82542 19.692Z" fill="inherit" stroke="inherit" stroke-width="0.2"/>
		<path d="M17.2586 16.1994L17.2582 16.1996L15.6791 16.9891C15.6791 16.9891 15.6791 16.9891 15.6791 16.9891C15.3826 17.1374 15.2625 17.4978 15.4107 17.7942L15.4108 17.7943C15.5163 18.0047 15.7279 18.1259 15.9479 18.1259C16.0384 18.1259 16.1298 18.1053 16.2155 18.0627L16.2158 18.0626L17.7949 17.273C17.7949 17.273 17.7949 17.273 17.7949 17.273C18.0914 17.1248 18.2115 16.7644 18.0633 16.4679L18.0632 16.4679C17.9149 16.1716 17.554 16.0531 17.2586 16.1994Z" fill="inherit" stroke="inherit" stroke-width="0.2"/>
		<path d="M7.78493 20.9368L7.78459 20.937L6.20547 21.7265C5.90898 21.8748 5.7889 22.2352 5.9371 22.5316L5.93715 22.5317C6.04263 22.7421 6.25428 22.8633 6.4743 22.8633C6.56476 22.8633 6.65616 22.8427 6.74189 22.8001L6.74214 22.8L8.32126 22.0104C8.32126 22.0104 8.32127 22.0104 8.32127 22.0104C8.61776 21.8622 8.73783 21.5018 8.58963 21.2053L8.58957 21.2052C8.44069 20.9085 8.08038 20.7905 7.78493 20.9368Z" fill="inherit" stroke="inherit" stroke-width="0.2"/>
		<path d="M14.1002 17.7786L14.1 17.7787L12.5209 18.5683C12.5209 18.5683 12.5209 18.5683 12.5209 18.5683C12.2244 18.7165 12.1043 19.0769 12.2525 19.3733L12.2526 19.3734C12.3581 19.5838 12.5697 19.705 12.7897 19.705C12.8802 19.705 12.9716 19.6844 13.0573 19.6418L13.0576 19.6417L14.6367 18.8521C14.6367 18.8521 14.6367 18.8521 14.6367 18.8521C14.9332 18.7039 15.0532 18.3435 14.905 18.0471L14.905 18.0469C14.7562 17.7505 14.3965 17.631 14.1002 17.7786Z" fill="inherit" stroke="inherit" stroke-width="0.2"/>
		<path d="M10.9424 19.358L10.9423 19.3581L9.36368 20.1476C9.36367 20.1476 9.36366 20.1476 9.36366 20.1477C9.06718 20.2959 8.94711 20.6563 9.0953 20.9527L9.09536 20.9528C9.20083 21.1632 9.41248 21.2844 9.6325 21.2844C9.72296 21.2844 9.81437 21.2638 9.90009 21.2212L9.90036 21.2211L11.4789 20.4315C11.479 20.4315 11.479 20.4315 11.479 20.4315C11.7754 20.2833 11.8955 19.9229 11.7473 19.6264L11.7473 19.6263C11.5985 19.3298 11.2377 19.211 10.9424 19.358Z" fill="inherit" stroke="inherit" stroke-width="0.2"/>
		<path d="M11.201 11.5003C11.064 11.8019 11.1969 12.1576 11.4988 12.2947M11.201 11.5003C11.337 11.1998 11.6921 11.0637 11.9957 11.2025C11.9957 11.2025 11.9958 11.2026 11.9958 11.2026L13.831 12.0369C14.1329 12.1741 14.2658 12.5298 14.1287 12.8315M11.201 11.5003C11.201 11.5003 11.201 11.5003 11.201 11.5004L11.2921 11.5416L11.201 11.5002C11.201 11.5002 11.201 11.5003 11.201 11.5003ZM11.4988 12.2947L13.3756 13.0382L13.3341 13.1291C13.3341 13.1291 13.3341 13.1291 13.3341 13.1292C13.415 13.1661 13.4995 13.1831 13.5821 13.1831C13.8102 13.1831 14.0284 13.0527 14.1287 12.8315M11.4988 12.2947L11.5401 12.2037L11.4987 12.2947L11.4988 12.2947ZM14.1287 12.8315L14.0377 12.7901L14.1287 12.8314C14.1287 12.8314 14.1287 12.8314 14.1287 12.8315Z" fill="inherit" stroke="inherit" stroke-width="0.2"/>
		<path d="M15.6663 12.8711L15.6665 12.8712L17.5024 13.7057C17.5024 13.7057 17.5024 13.7057 17.5024 13.7057C17.8043 13.8428 17.9372 14.1985 17.8001 14.5002M15.6663 12.8711L17.7091 14.4588M15.6663 12.8711C15.3615 12.7331 15.0084 12.8684 14.8719 13.1689L15.6663 12.8711ZM17.8001 14.5002L17.7091 14.4588M17.8001 14.5002C17.8001 14.5002 17.8001 14.5001 17.8002 14.5001L17.7091 14.4588M17.8001 14.5002C17.6998 14.7214 17.4816 14.8518 17.2535 14.8518C17.1709 14.8518 17.0864 14.8348 17.0056 14.7979L17.047 14.7069C17.1143 14.7376 17.1846 14.7518 17.2535 14.7518C17.444 14.7518 17.6256 14.6429 17.7091 14.4588M15.1697 13.9635L17.0054 14.7978L14.8719 13.169C14.7349 13.4706 14.8678 13.8263 15.1696 13.9634C15.1697 13.9635 15.1697 13.9635 15.1697 13.9635Z" fill="inherit" stroke="inherit" stroke-width="0.2"/>
		<path d="M10.1585 10.3675L10.1586 10.3675C10.4598 10.5046 10.5934 10.8602 10.4563 11.1619C10.356 11.3832 10.1378 11.5136 9.90964 11.5136C9.82707 11.5136 9.74257 11.4966 9.66167 11.4597L9.66174 11.4597L9.70311 11.3686L9.66155 11.4596L8.75166 11.0461L8.75092 11.0458C8.74299 11.0421 8.73678 11.038 8.73241 11.0348C8.71724 11.0262 8.70578 11.0168 8.69941 11.0116L8.68999 11.0038C8.68828 11.0025 8.6876 11.002 8.6876 11.002L8.68753 11.002C8.64132 10.973 8.59158 10.9378 8.54972 10.8901C8.54805 10.8889 8.54617 10.8875 8.54424 10.8859C8.53856 10.8814 8.53098 10.8745 8.52365 10.865C8.52358 10.8649 8.52351 10.8648 8.52344 10.8647L8.60305 10.8042L10.1585 10.3675ZM10.1585 10.3675L9.92501 10.2614L10.1585 10.3675ZM6.09998 3.99998C6.09998 2.4009 7.4009 1.09998 8.99998 1.09998C10.5991 1.09998 11.9 2.4009 11.9 3.99998C11.9 4.29782 11.7876 4.70135 11.5934 5.17099C11.4003 5.63799 11.1306 6.16023 10.8254 6.69203C10.2447 7.70406 9.53942 8.74411 8.99998 9.49254C8.46055 8.74411 7.75525 7.70407 7.17455 6.69205C6.8694 6.16025 6.59971 5.63801 6.40658 5.17101C6.21236 4.70137 6.09998 4.29783 6.09998 3.99998Z" fill="inherit" stroke="inherit" stroke-width="0.2"/>
	</g>
	
</symbol><symbol id="README"/><symbol id="star" viewBox="0 0 24 24">
	<path d="M12 2L15.09 8.26L22 9.27L17 14.14L18.18 21.02L12 17.77L5.82 21.02L7 14.14L2 9.27L8.91 8.26L12 2Z" stroke="inherit" stroke-width="1.5" stroke-linecap="round" stroke-linejoin="round" fill="none"/>
</symbol><symbol id="user" viewBox="0 0 24 24">
	<path d="M20 21V19C20 17.9391 19.5786 16.9217 18.8284 16.1716C18.0783 15.4214 17.0609 15 16 15H8C6.93913 15 5.92172 15.4214 5.17157 16.1716C4.42143 16.9217 4 17.9391 4 19V21" stroke="inherit" fill="none" stroke-width="1.5" stroke-linecap="round" stroke-linejoin="round"/>
	<path d="M12 11C14.2091 11 16 9.20914 16 7C16 4.79086 14.2091 3 12 3C9.79086 3 8 4.79086 8 7C8 9.20914 9.79086 11 12 11Z" stroke="inherit" fill="none" stroke-width="1.5" stroke-linecap="round" stroke-linejoin="round"/>
</symbol></svg>